# xmcd CD database file
#
# Track frame offsets:
#	150
#	19832
#	37737
#	58190
#	81536
#	99465
#	121711
#	141595
#	162006
#	183690
#	202798
#	222495
#	240469
#	259437
#	279123
#	304470
#
# Disc length: 4349 seconds
#
# Revision: 5
# Processed by: cddbd v1.5.2PL0 Copyright (c) Steve Scherf et al.
# Submitted via: CDex 1.70beta3
#
DISCID=e610fb10
DTITLE=倉木麻衣 - ALL MY BEST [CD2]
DYEAR=2009
DGENRE=J-pop
TTITLE0=Baby I Like
TTITLE1=PUZZLE
TTITLE2=Beautiful
TTITLE3=touch Me!
TTITLE4=一秒ごとに Love for you
TTITLE5=BE WITH U
TTITLE6=Silent love ～open my heart～
TTITLE7=会いたくて...
TTITLE8=白い雪
TTITLE9=ベスト オブ ヒーロー
TTITLE10=Growing of my heart
TTITLE11=明日へ架ける橋
TTITLE12=Time after time ～花舞う街で～ (theater version)
TTITLE13=風のららら
TTITLE14=Like a star in the night
TTITLE15=Feel fine!
EXTD=YEAR: 2009
EXTT0=
EXTT1=
EXTT2=
EXTT3=
EXTT4=
EXTT5=
EXTT6=
EXTT7=
EXTT8=
EXTT9=
EXTT10=
EXTT11=
EXTT12=
EXTT13=
EXTT14=
EXTT15=
PLAYORDER=
